<?xml version="1.0" encoding="UTF-8" standalone="no"?>
<!DOCTYPE svg PUBLIC "-//W3C//DTD SVG 1.1//EN" "http://www.w3.org/Graphics/SVG/1.1/DTD/svg11.dtd">
<svg version="1.1" xmlns="http://www.w3.org/2000/svg" xmlns:xlink="http://www.w3.org/1999/xlink" preserveAspectRatio="xMidYMid meet" viewBox="0 0 640 640" width="640" height="640"><defs><path d="M57.55 458.76C57.81 458.6 59.89 457.38 60.15 457.23C60.5 456.25 60.86 455.26 61.13 454.27C62.39 445.22 61.31 434.55 59.79 423.53C58.71 415.64 57.37 407.48 55.84 398.88C52.08 376.38 48.13 353.08 49.75 333.8C49.75 333.79 49.75 333.72 49.75 333.71C50.38 329.32 51.99 321.25 56.11 314.44C62.39 301.62 75.47 292.66 90.62 292.39C90.89 292.39 91.16 292.39 91.43 292.39C91.52 292.39 91.7 292.39 91.79 292.39C91.97 292.39 92.15 292.39 92.41 292.39C92.68 292.39 92.95 292.39 93.22 292.39C94.92 292.48 96.72 292.66 98.33 292.93C98.33 292.93 98.33 292.93 98.33 292.93C98.87 293.02 99.41 293.11 99.94 293.29C100.3 293.38 100.75 293.47 101.11 293.56C101.29 293.56 101.47 293.65 101.56 293.65C101.83 293.74 102.01 293.74 102.27 293.83C115.72 297.77 126.21 308.71 129.52 322.42C129.52 322.6 129.61 322.69 129.61 322.87C129.7 323.05 129.7 323.32 129.79 323.5C129.88 323.85 129.97 324.21 129.97 324.57C129.97 324.57 129.97 324.66 129.97 324.66C130.06 325.02 130.06 325.38 130.15 325.74C130.15 325.92 130.15 326.01 130.24 326.18C130.24 326.45 130.33 326.72 130.33 326.99C130.33 327.08 130.33 327.26 130.33 327.35C130.33 327.71 130.42 328.16 130.42 328.52C130.42 328.61 130.42 328.69 130.42 328.87C130.42 329.23 130.42 329.5 130.51 329.86C130.51 329.95 130.51 330.13 130.51 330.22C130.51 330.49 130.51 330.85 130.51 331.11C131.5 328.69 132.39 326.18 133.11 323.68C135.71 314.35 134.36 304.13 131.05 295.17C125.4 279.84 112.49 268.28 97.43 262.45C81.39 256.27 63.1 256.81 46.79 262.01C31.73 266.85 18.73 276.71 10.4 290.24C7.44 295.08 5.02 300.28 3.23 305.66C2.33 308.71 1.61 311.84 1.08 315.07C0.45 318.3 0.09 321.61 -0.18 324.93C-0.27 325.92 -0.36 326.9 -0.36 327.89C-0.45 329.05 -0.45 330.31 -0.45 331.47C-0.45 332.64 -0.45 333.8 -0.36 335.06C-0.36 346.71 -0.36 364.19 -0.36 383.28C2.69 412.15 16.4 440.83 33.88 453.38C41.77 459.03 50.02 460.91 57.55 458.76Z" id="cgGrNxKrf"></path><path d="M5.83 424.43C3.59 419.59 1.7 414.48 0.09 409.19C0.09 433.48 0.09 457.23 0.09 472.47C0.09 472.47 0.09 472.47 0.09 472.47C0.09 473.82 0.09 474.98 0.09 476.15C0.09 476.15 0.09 476.15 0.09 476.15C0.09 477.31 0.09 478.39 0.09 479.37C0.09 479.46 0.09 479.46 0.09 479.55C0.09 479.73 0.09 480 0.09 480.18C0.09 480.27 0.09 480.27 0.09 480.36C0.09 481.08 0.09 481.7 0.09 482.33C0.09 482.33 0.09 482.33 0.09 482.33C0.09 482.51 0.09 482.78 0.09 482.96C0.09 482.96 0.09 483.05 0.09 483.05C0.09 483.23 0.09 483.41 0.09 483.59C0.09 483.68 0.09 483.76 0.09 483.85C0.09 484.03 0.09 484.3 0.09 484.48C0.09 484.57 0.09 484.75 0.09 484.84C0.09 484.93 0.09 485.02 0.09 485.11C0.09 485.2 0.09 485.29 0.09 485.38C0.09 485.47 0.09 485.56 0.09 485.65C0.09 485.74 0.09 485.92 0.09 486.01C0.09 486.1 0.09 486.1 0.09 486.18C0.09 486.63 0.09 487.08 0.18 487.44C0.18 487.62 0.18 487.8 0.27 487.89C0.27 488.07 0.36 488.25 0.45 488.43C0.45 488.43 0.45 488.43 0.45 488.43C0.9 489.68 1.97 490.13 4.12 490.13C4.12 490.13 4.12 490.13 4.12 490.13C6.36 490.13 8.61 489.95 10.76 489.86C12.01 489.77 13.27 489.68 14.43 489.5C15.96 489.32 17.48 489.14 18.91 488.87C19.99 488.69 20.97 488.52 21.96 488.25C22.68 488.07 23.48 487.89 24.2 487.71C25.46 487.44 26.62 487.08 27.79 486.72C28.95 486.36 30.12 486.01 31.19 485.56C41.23 481.7 49.39 475.34 55.66 465.93C56.11 465.21 56.56 464.58 57.01 463.87C55.13 464.22 53.24 464.49 51.27 464.49C44.55 464.67 37.65 462.25 30.92 457.41C21.33 450.51 12.37 438.77 5.83 424.43Z" id="a1tYJiApPv"></path><path d="M182.32 320.63C182.32 320.27 182.23 320 182.23 319.64C182.05 318.03 181.78 316.5 181.51 314.89C181.51 314.71 181.42 314.53 181.42 314.35C180.35 308.89 178.82 303.69 176.94 298.58C176.94 298.49 176.85 298.4 176.85 298.31C176.22 296.69 175.6 295.17 174.88 293.56C174.79 293.47 174.79 293.29 174.7 293.2C173.98 291.59 173.18 289.97 172.37 288.45C172.37 288.45 172.37 288.45 172.37 288.45C167.44 279.31 160.99 271.06 153.37 264.07C152.11 262.9 150.86 261.83 149.6 260.75C149.24 260.48 148.89 260.21 148.62 259.94C147.63 259.14 146.55 258.33 145.57 257.61C145.03 257.25 144.49 256.81 143.96 256.45C143.06 255.82 142.16 255.19 141.18 254.57C140.64 254.21 140.1 253.85 139.56 253.49C138.31 252.68 137.05 251.97 135.8 251.25C135.53 251.16 135.35 250.98 135.08 250.89C133.56 250.08 132.03 249.28 130.42 248.56C129.97 248.38 129.61 248.2 129.17 248.02C127.91 247.48 126.66 246.86 125.31 246.41C124.95 246.23 124.5 246.14 124.15 245.96C120.65 244.62 117.15 243.54 113.48 242.64C113.48 242.64 113.48 242.64 113.48 242.64C106.4 240.85 98.96 239.96 91.34 239.96C65.79 239.96 42.76 250.8 26.17 268.01C34.33 262.27 43.65 258.15 53.69 256C71.44 252.24 89.9 253.31 106.22 261.74C121.9 269.89 133.92 284.24 137.68 301.71C138.76 306.55 139.29 311.84 138.94 316.77C138.85 318.03 138.67 319.28 138.49 320.54C138.49 320.54 138.49 320.54 138.49 320.54C137.05 330.31 131.41 345.64 121.82 356.57C119.04 359.89 115.72 362.76 112.04 365C112.04 365 112.04 365 112.04 365C112.04 365 112.04 365 112.04 365C106.13 368.67 99.14 370.73 91.61 370.73C74.49 370.73 59.97 359.71 54.5 344.47C54.68 360.87 57.82 379.61 60.86 397.8C62.12 405.06 63.28 411.97 64.27 418.78C72.87 421.47 82.02 422.9 91.52 422.9C141.98 422.9 183.04 381.85 183.04 331.38C183.04 329.5 182.95 327.71 182.86 325.83C182.86 325.83 182.86 325.56 182.77 325.2C182.68 323.68 182.5 322.15 182.32 320.63Z" id="cbDKluSV5"></path><path d="M154.71 220.24C152.92 214.68 155.97 208.58 161.52 206.79C167.08 205 173.18 208.04 174.97 213.6C176.85 219.25 173.71 225.25 168.16 227.05C162.6 228.84 156.5 225.79 154.71 220.24ZM145.66 192.45C148.35 195.68 153.28 196.12 156.5 193.43C159.73 190.75 160.18 185.82 157.49 182.59C154.8 179.27 149.96 178.91 146.64 181.6C143.42 184.29 142.97 189.22 145.66 192.45ZM150.5 265.41C152.65 275.18 162.24 281.46 172.01 279.31C181.78 277.15 188.06 267.56 185.9 257.79C183.75 248.02 174.25 241.75 164.39 243.9C154.62 245.96 148.35 255.64 150.5 265.41ZM197.83 194.51C199.8 195.76 202.4 195.23 203.65 193.25C204.91 191.28 204.37 188.68 202.4 187.43C200.43 186.17 197.83 186.8 196.57 188.68C195.32 190.66 195.85 193.25 197.83 194.51ZM178.11 165.2C179.99 162.33 179.18 158.48 176.22 156.59C173.27 154.71 169.5 155.52 167.62 158.48C165.74 161.34 166.54 165.29 169.5 167.08C172.37 168.96 176.22 168.16 178.11 165.2ZM193.7 225.52C194.51 229.38 198.36 231.8 202.22 230.99C206.07 230.18 208.49 226.33 207.69 222.48C206.79 218.62 203.03 216.2 199.17 217.01C195.32 217.82 192.9 221.67 193.7 225.52Z" id="d9hww8pa2"></path><path d="M130.69 334.43C130.69 334.43 130.69 334.52 130.69 334.52C130.6 335.42 130.51 336.4 130.42 337.3C130.42 337.3 130.42 337.3 130.42 337.3C133.65 330.67 136.87 322.42 136.87 315.07C136.87 276.53 103.17 256.18 74.58 256.18C24.2 256.18 3.32 288.9 0.54 323.59C0.27 325.2 0.18 326.72 0.18 328.34C0.18 338.55 0.18 358.27 0.18 380.41C0.18 425.41 29.31 469.78 58.62 461.09C63.82 450.24 64.27 437.33 62.39 423.26C58.44 394.31 50.2 360.25 52.35 334.16C52.26 333.36 52.26 332.55 52.26 331.74C52.26 310.05 69.83 292.48 91.52 292.48C92.15 292.48 92.77 292.48 93.4 292.57C93.67 292.57 93.94 292.57 94.12 292.57C94.92 292.66 95.64 292.75 96.45 292.84C96.45 292.84 96.45 292.84 96.45 292.84C96.54 292.84 96.63 292.84 96.72 292.84C96.9 292.84 97.17 292.93 97.34 292.93C97.52 292.93 97.61 292.93 97.79 293.02C97.97 293.02 98.06 293.11 98.24 293.11C98.42 293.11 98.6 293.2 98.69 293.2C98.78 293.2 98.96 293.29 99.05 293.29C99.23 293.29 99.41 293.38 99.59 293.38C99.68 293.38 99.76 293.38 99.85 293.47C100.84 293.65 101.83 293.92 102.81 294.27C107.56 295.62 111.69 297.68 115.81 301.09C116.08 301.27 116.35 301.54 116.62 301.71C116.62 301.71 116.71 301.8 116.71 301.8C116.97 301.98 117.15 302.16 117.42 302.43C117.42 302.43 117.51 302.52 117.51 302.52C117.78 302.7 117.96 302.97 118.23 303.15C118.23 303.15 118.32 303.24 118.32 303.24C119.66 304.49 120.83 305.75 121.99 307.18C125.49 311.31 127.82 315.79 129.25 321.08C129.34 321.52 129.52 321.88 129.61 322.33C129.61 322.42 129.61 322.42 129.61 322.51C129.7 322.87 129.79 323.23 129.88 323.59C129.88 323.68 129.88 323.76 129.88 323.76C130.06 324.57 130.24 325.38 130.33 326.27C130.33 326.36 130.33 326.45 130.33 326.54C130.42 326.9 130.42 327.26 130.42 327.62C130.42 327.71 130.42 327.71 130.42 327.8C130.42 328.25 130.51 328.61 130.51 329.05C130.51 329.14 130.51 329.23 130.51 329.32C130.51 329.68 130.51 329.95 130.6 330.31C130.6 330.4 130.6 330.58 130.6 330.67C130.6 331.11 130.6 331.47 130.6 331.92C130.6 332.37 130.6 332.82 130.6 333.18C130.78 333.09 130.78 333.18 130.78 333.27C130.78 333.62 130.78 334.07 130.69 334.43Z" id="a4j2cigfEx"></path><path d="M110.97 202.58C103.05 202.58 96.63 209 96.63 216.92C96.63 224.84 103.05 231.26 110.97 231.26C118.89 231.26 125.31 224.84 125.31 216.92C125.31 209 118.89 202.58 110.97 202.58Z" id="cjPeqMNci"></path><path d="M207.78 149.6C205.8 149.6 204.19 151.21 204.19 153.19C204.19 155.17 205.8 156.77 207.78 156.77C209.76 156.77 211.36 155.17 211.36 153.19C211.36 151.21 209.76 149.6 207.78 149.6Z" id="b3zFa8KNLZ"></path></defs><g><g><g><use xlink:href="#cgGrNxKrf" opacity="1" fill="#ffffff" fill-opacity="1"></use><g><use xlink:href="#cgGrNxKrf" opacity="1" fill-opacity="0" stroke="#000000" stroke-width="1" stroke-opacity="0"></use></g></g><g><use xlink:href="#a1tYJiApPv" opacity="1" fill="#ffffff" fill-opacity="1"></use><g><use xlink:href="#a1tYJiApPv" opacity="1" fill-opacity="0" stroke="#000000" stroke-width="1" stroke-opacity="0"></use></g></g><g><use xlink:href="#cbDKluSV5" opacity="1" fill="#ffffff" fill-opacity="1"></use><g><use xlink:href="#cbDKluSV5" opacity="1" fill-opacity="0" stroke="#000000" stroke-width="1" stroke-opacity="0"></use></g></g><g><use xlink:href="#d9hww8pa2" opacity="1" fill="#ffffff" fill-opacity="1"></use><g><use xlink:href="#d9hww8pa2" opacity="1" fill-opacity="0" stroke="#000000" stroke-width="1" stroke-opacity="0"></use></g></g><g><use xlink:href="#a4j2cigfEx" opacity="1" fill="#ffffff" fill-opacity="1"></use><g><use xlink:href="#a4j2cigfEx" opacity="1" fill-opacity="0" stroke="#000000" stroke-width="1" stroke-opacity="0"></use></g></g><g><use xlink:href="#cjPeqMNci" opacity="1" fill="#ffffff" fill-opacity="1"></use><g><use xlink:href="#cjPeqMNci" opacity="1" fill-opacity="0" stroke="#000000" stroke-width="1" stroke-opacity="0"></use></g></g><g><use xlink:href="#b3zFa8KNLZ" opacity="1" fill="#ffffff" fill-opacity="1"></use><g><use xlink:href="#b3zFa8KNLZ" opacity="1" fill-opacity="0" stroke="#000000" stroke-width="1" stroke-opacity="0"></use></g></g></g></g></svg>